<?xml version="1.0" encoding="utf-8"?>
<!-- Generator: Adobe Illustrator 27.0.0, SVG Export Plug-In . SVG Version: 6.00 Build 0)  -->
<svg version="1.2" baseProfile="tiny" id="Layer_1" xmlns="http://www.w3.org/2000/svg" xmlns:xlink="http://www.w3.org/1999/xlink"
	 x="0px" y="0px" viewBox="0 0 1080 1080" overflow="visible" xml:space="preserve">
<g>
	<circle fill="#5678EE" cx="216" cy="454.5" r="20.3"/>
	<circle fill="#5678EE" cx="276.2" cy="542.7" r="20.3"/>
	<path fill="#160A88" d="M307.1,474.8c0,10-5.8,18.7-14.2,22.9c-0.1,0.1-0.2,0.1-0.3,0.2c-12.6,7.1-30.2,0.6-45,7.8
		c-12.6,6.1-11.9,14.7-18.1,23.9c-1.7,4-4.9,7.3-8.8,9.1l0,0c-2.3,1.1-5,1.8-7.7,1.8c-10,0-18.1-8.1-18.1-18.1
		c0-6.6,3.6-12.4,8.9-15.6c7.8-5.8,18.7,0.1,36-9.8c11.3-6.5,13.5-18.3,16.8-28.3c1-2.9,2.1-5.7,3.6-8.1c0.1-0.1,0.1-0.2,0.2-0.3
		c0.9-1.3,1.8-2.4,2.9-3.5c0.5-0.5,1-0.9,1.5-1.4c0,0,0,0,0,0c4.5-3.8,10.3-6.1,16.6-6.1C295.6,449.2,307.1,460.7,307.1,474.8z"/>
	<path fill="#160A88" d="M283.1,606.6c0,7.7-4.4,14.3-10.8,17.5c-0.1,0.1-0.2,0.1-0.3,0.1c-9.6,5.4-23.1,0.4-34.4,5.9
		c-9.6,4.7-9.1,11.2-13.8,18.2c-1.3,3.1-3.7,5.6-6.7,7l0,0c-1.8,0.9-3.8,1.3-5.9,1.3c-7.6,0-13.8-6.2-13.8-13.8
		c0-5.1,2.7-9.5,6.8-11.9c5.9-4.4,14.3,0.1,27.5-7.5c8.7-5,10.3-14,12.9-21.6c0.8-2.2,1.6-4.3,2.7-6.2c0.1-0.1,0.1-0.1,0.1-0.2
		c0.7-1,1.4-1.9,2.2-2.7c0.4-0.4,0.8-0.7,1.2-1.1c0,0,0,0,0,0c3.4-2.9,7.8-4.7,12.7-4.7C274.3,587.1,283.1,595.8,283.1,606.6z"/>
	<path fill="#160A88" d="M171.7,442.6c0,7.7-4.4,14.3-10.8,17.5c-0.1,0.1-0.2,0.1-0.3,0.1c-9.6,5.4-23.1,0.4-34.4,5.9
		c-9.6,4.7-9.1,11.2-13.8,18.2c-1.3,3.1-3.7,5.6-6.7,7l0,0c-1.8,0.9-3.8,1.3-5.9,1.3c-7.6,0-13.8-6.2-13.8-13.8
		c0-5.1,2.7-9.5,6.8-11.9c5.9-4.4,14.3,0.1,27.5-7.5c8.7-5,10.3-14,12.9-21.6c0.8-2.2,1.6-4.3,2.7-6.2c0.1-0.1,0.1-0.1,0.1-0.2
		c0.7-1,1.4-1.9,2.2-2.7c0.4-0.4,0.8-0.7,1.2-1.1c0,0,0,0,0,0c3.4-2.9,7.8-4.7,12.7-4.7C162.9,423,171.7,431.8,171.7,442.6z"/>
	<circle fill="#5678EE" cx="215.2" cy="587.1" r="15.8"/>
	<circle fill="#5678EE" cx="152.6" cy="496.6" r="15.8"/>
	<circle fill="#5678EE" cx="152.6" cy="563" r="12.6"/>
	<text transform="matrix(1 0 0 1 330.0469 585.126)" fill="#5678EE" font-family="'Raleway-SemiBold'" font-size="122.6133px">D</text>
	<text transform="matrix(1 0 0 1 417.8364 585.126)" fill="#5678EE" font-family="'Raleway-SemiBold'" font-size="122.6133px">H</text>
	<text transform="matrix(1 0 0 1 508.9375 585.126)" fill="#5678EE" font-family="'Raleway-SemiBold'" font-size="122.6133px">N</text>
	<text transform="matrix(1 0 0 1 602.9814 585.126)" fill="#5678EE" font-family="'Raleway-SemiBold'" font-size="122.6133px">.</text>
	<text transform="matrix(1 0 0 1 629.0986 585.126)" fill="#5678EE" font-family="'Raleway-SemiBold'" font-size="122.6133px">d</text>
	<text transform="matrix(1 0 0 1 707.2021 585.126)" fill="#5678EE" font-family="'Raleway-SemiBold'" font-size="122.6133px">i</text>
	<text transform="matrix(1 0 0 1 736.873 585.126)" fill="#5678EE" font-family="'Raleway-SemiBold'" font-size="122.6133px">g</text>
	<text transform="matrix(1 0 0 1 813.9971 585.126)" fill="#5678EE" font-family="'Raleway-SemiBold'" font-size="122.6133px">i</text>
	<text transform="matrix(1 0 0 1 843.668 585.126)" fill="#5678EE" font-family="'Raleway-SemiBold'" font-size="122.6133px">t</text>
	<text transform="matrix(1 0 0 1 888.665 585.126)" fill="#5678EE" font-family="'Raleway-SemiBold'" font-size="122.6133px">a</text>
	<text transform="matrix(1 0 0 1 957.8184 585.126)" fill="#5678EE" font-family="'Raleway-SemiBold'" font-size="122.6133px">l</text>
</g>
</svg>
