<?xml version="1.0" encoding="UTF-8"?>
<svg version="1.1" xmlns="http://www.w3.org/2000/svg" width="256" height="66">
<path d="M0 0 C4 0 4 0 5.44799805 1.26928711 C5.88152588 1.8494458 6.31505371 2.42960449 6.76171875 3.02734375 C7.48004883 3.96803711 7.48004883 3.96803711 8.21289062 4.92773438 C8.69951172 5.59095703 9.18613281 6.25417969 9.6875 6.9375 C10.67046111 8.23836574 11.65352855 9.53915115 12.63671875 10.83984375 C13.41660156 11.88269531 14.19648438 12.92554688 15 14 C15.33 14.33 15.66 14.66 16 15 C16.33 10.05 16.66 5.1 17 0 C19.475 0.495 19.475 0.495 22 1 C22 9.25 22 17.5 22 26 C17 26 17 26 15.42260742 24.80664062 C14.77062378 23.98969727 14.77062378 23.98969727 14.10546875 23.15625 C13.62529297 22.56972656 13.14511719 21.98320313 12.65039062 21.37890625 C12.16763672 20.75886719 11.68488281 20.13882813 11.1875 19.5 C10.68541016 18.87996094 10.18332031 18.25992188 9.66601562 17.62109375 C8.43056685 16.0914905 7.21345848 14.54710643 6 13 C5.67 17.29 5.34 21.58 5 26 C3.35 26 1.7 26 0 26 C0 17.42 0 8.84 0 0 Z " fill="#251987" transform="translate(122,20)"/>
<path d="M0 0 C2.53103946 0.07794868 3.78999008 0.15426843 6 1.4375 C7.53099826 4.13926164 7.9382742 6.20685505 8.0625 9.3125 C5.93206522 13.87771739 5.93206522 13.87771739 3.0625 15.3125 C2.22460938 15.3846875 1.38671875 15.456875 0.5234375 15.53125 C-5.93245579 16.06998328 -5.93245579 16.06998328 -11.26171875 19.4453125 C-12.56285418 21.07620524 -13.84751758 22.72041088 -15.11328125 24.37890625 C-16.9375 26.3125 -16.9375 26.3125 -18.98046875 26.90234375 C-20.9375 26.875 -20.9375 26.875 -23.9375 26.3125 C-25.31875018 23.54999964 -25.12829306 21.36518901 -24.9375 18.3125 C-22.59349632 15.96849632 -21.23974127 15.76838328 -18.0625 15 C-13.52399794 13.69395624 -11.38224245 12.51745701 -8.9375 8.3125 C-7.92190599 6.32037329 -6.91960371 4.3213485 -5.9375 2.3125 C-3.9375 0.3125 -3.9375 0.3125 0 0 Z " fill="#1C0F84" transform="translate(55.9375,6.6875)"/>
<path d="M0 0 C6.14051161 0.07894944 10.03402591 1.26917577 14.8125 5.3125 C17.10282825 9.6183171 17.02039835 13.47247804 16.375 18.25 C14.64129186 22.53864644 12.48784375 24.25007323 8.375 26.25 C4.82421875 26.54296875 4.82421875 26.54296875 1.0625 26.4375 C-0.81888672 26.39689453 -0.81888672 26.39689453 -2.73828125 26.35546875 C-3.69089844 26.32066406 -4.64351563 26.28585938 -5.625 26.25 C-5.65386751 22.10418113 -5.67175327 17.95838784 -5.6875 13.8125 C-5.69587891 12.62849609 -5.70425781 11.44449219 -5.71289062 10.22460938 C-5.71611328 9.09990234 -5.71933594 7.97519531 -5.72265625 6.81640625 C-5.72789307 5.77427979 -5.73312988 4.73215332 -5.73852539 3.65844727 C-5.54183412 -0.51436856 -3.73404304 0.06768658 0 0 Z M-0.625 5.25 C-0.625 10.53 -0.625 15.81 -0.625 21.25 C6.68362751 22.02166267 6.68362751 22.02166267 9.3125 19.875 C11.50875621 16.51601991 11.84865946 14.27610542 11.375 10.25 C9.43807631 7.22966263 9.43807631 7.22966263 6.375 5.25 C4.065 5.25 1.755 5.25 -0.625 5.25 Z " fill="#1F128B" transform="translate(76.625,19.75)"/>
<path d="M0 0 C1.051875 0.01353516 1.051875 0.01353516 2.125 0.02734375 C3.053125 0.04474609 3.053125 0.04474609 4 0.0625 C4.66 0.0625 5.32 0.0625 6 0.0625 C7.32 0.0625 8.64 0.0625 10 0.0625 C10.11627503 3.64555992 10.1872736 7.22813417 10.25 10.8125 C10.30027344 12.33617187 10.30027344 12.33617187 10.3515625 13.890625 C10.45022085 21.38865952 10.45022085 21.38865952 8.23046875 24.7109375 C4.83479028 26.76856403 1.93197879 27.14067055 -2 27.0625 C-5.91973067 26.03996157 -6.70689866 25.50215202 -9 22.0625 C-7.375 20.9375 -7.375 20.9375 -5 20.0625 C-2.98415349 20.67959587 -0.98248715 21.34543018 1 22.0625 C1.99 21.7325 2.98 21.4025 4 21.0625 C4.33 20.0725 4.66 19.0825 5 18.0625 C4.34 18.3925 3.68 18.7225 3 19.0625 C-3.26519337 19.6426105 -3.26519337 19.6426105 -6.375 17.1875 C-9.28296416 13.38477763 -9.32430084 10.84593732 -9 6.0625 C-6.72497358 1.30562658 -5.20483636 -0.08610943 0 0 Z M-2.6875 5.25 C-4.46030193 7.69815504 -4.44413964 9.10156909 -4 12.0625 C-2.93654948 14.04279682 -2.93654948 14.04279682 -1 15.0625 C2.31818985 14.82044651 2.31818985 14.82044651 5 13.0625 C5.33338596 9.60437831 5.33338596 9.60437831 5 6.0625 C1.20912068 3.52527491 1.20912068 3.52527491 -2.6875 5.25 Z " fill="#5F7ED0" transform="translate(193,26.9375)"/>
<path d="M0 0 C1.65 0 3.3 0 5 0 C5 3.63 5 7.26 5 11 C8.63 11 12.26 11 16 11 C16 7.7 16 4.4 16 1 C17.65 0.67 19.3 0.34 21 0 C21 8.58 21 17.16 21 26 C19.35 26 17.7 26 16 26 C16 22.37 16 18.74 16 15 C12.37 15 8.74 15 5 15 C5 18.63 5 22.26 5 26 C3.35 26 1.7 26 0 26 C0 17.42 0 8.84 0 0 Z " fill="#20118E" transform="translate(96,20)"/>
<path d="M0 0 C1.65 0 3.3 0 5 0 C5.33 8.58 5.66 17.16 6 26 C4.02 25.67 2.04 25.34 0 25 C-0.33 25.33 -0.66 25.66 -1 26 C-5.75841461 26.47584146 -7.94321049 26.68250989 -12 24.0625 C-14.69465457 19.93631019 -14.91072894 16.79650575 -14 12 C-12.5 8.9375 -12.5 8.9375 -10 7 C-6.51435871 6.41446737 -3.22309078 6.38845461 0 8 C0 5.36 0 2.72 0 0 Z M-7.6875 12.1875 C-9.46030193 14.63565504 -9.44413964 16.03906909 -9 19 C-7.93654948 20.98029682 -7.93654948 20.98029682 -6 22 C-2.68181015 21.75794651 -2.68181015 21.75794651 0 20 C0.33338596 16.54187831 0.33338596 16.54187831 0 13 C-3.79087932 10.46277491 -3.79087932 10.46277491 -7.6875 12.1875 Z " fill="#5B7AD2" transform="translate(168,20)"/>
<path d="M0 0 C0.86625 -0.01675781 1.7325 -0.03351562 2.625 -0.05078125 C5.45006192 0.38134171 6.2697724 1.09023893 8 3.3125 C9.4807848 6.2740696 9.35314037 9.14756295 9.5625 12.4375 C9.68818359 14.35949219 9.68818359 14.35949219 9.81640625 16.3203125 C9.87699219 17.30773437 9.93757813 18.29515625 10 19.3125 C7.39472895 19.42042837 4.79391689 19.49974878 2.1875 19.5625 C1.44951172 19.59601562 0.71152344 19.62953125 -0.04882812 19.6640625 C-5.50049022 19.76273512 -5.50049022 19.76273512 -8.01953125 17.4921875 C-9.41039352 14.40015106 -8.97326564 12.5103728 -8 9.3125 C-5.09907498 7.37854999 -4.10325263 7.01118059 -0.8125 6.6875 C0.445625 6.56375 1.70375 6.44 3 6.3125 C3 5.6525 3 4.9925 3 4.3125 C0.03 4.9725 -2.94 5.6325 -6 6.3125 C-6.66 4.9925 -7.32 3.6725 -8 2.3125 C-4.78169935 0.16696623 -3.73213493 0.01666132 0 0 Z M-4 12.3125 C-3.67 13.3025 -3.34 14.2925 -3 15.3125 C-1.35 15.3125 0.3 15.3125 2 15.3125 C2.66 13.9925 3.32 12.6725 4 11.3125 C-0.17810069 10.12318813 -0.17810069 10.12318813 -4 12.3125 Z " fill="#6B84CA" transform="translate(235,26.6875)"/>
<path d="M0 0 C1.27875 -0.061875 2.5575 -0.12375 3.875 -0.1875 C4.95394531 -0.23970703 4.95394531 -0.23970703 6.0546875 -0.29296875 C6.69664063 -0.19628906 7.33859375 -0.09960938 8 0 C10 3 10 3 9.875 6.5625 C9 10 9 10 7.2265625 11.16796875 C4.9554404 12.01665122 2.89513974 12.4054936 0.5 12.75 C-3.37490679 13.51993262 -3.7610097 13.64854367 -6.125 17.125 C-6.74375 18.07375 -7.3625 19.0225 -8 20 C-11.75 20.375 -11.75 20.375 -15 20 C-15.625 17.125 -15.625 17.125 -16 14 C-13.52295499 11.52295499 -11.24880185 10.95054266 -7.97265625 9.87890625 C-3.49464708 7.88375365 -2.00646784 4.29957395 0 0 Z " fill="#251889" transform="translate(47,46)"/>
<path d="M0 0 C3.25 0.6875 3.25 0.6875 5.25 2.6875 C5.922 8.8475 5.922 8.8475 3.75 11.5625 C1.34535692 12.64458939 -0.16943996 12.89871955 -2.75 13.125 C-5.81810734 13.40443729 -6.60094454 13.56982464 -9.125 15.5625 C-10.39607715 17.22467782 -11.58930098 18.94645147 -12.75 20.6875 C-15.8125 20.9375 -15.8125 20.9375 -18.75 20.6875 C-19.75 19.6875 -19.75 19.6875 -19.8125 16.625 C-19.791875 15.655625 -19.77125 14.68625 -19.75 13.6875 C-19.09773438 13.50316406 -18.44546875 13.31882812 -17.7734375 13.12890625 C-11.08545296 10.90944236 -8.66709288 8.58905858 -5.19140625 2.55859375 C-3.75 0.6875 -3.75 0.6875 0 0 Z " fill="#1C0F88" transform="translate(19.75,-0.6875)"/>
<path d="M0 0 C1.65 0 3.3 0 5 0 C5 1.98 5 3.96 5 6 C6.32 6 7.64 6 9 6 C9 7.32 9 8.64 9 10 C7.68 10 6.36 10 5 10 C5.33 13.3 5.66 16.6 6 20 C7.32 20.33 8.64 20.66 10 21 C9.67 22.32 9.34 23.64 9 25 C5.625 25.125 5.625 25.125 2 25 C0 23 0 23 -0.1953125 19.9609375 C-0.17210937 18.77757813 -0.14890625 17.59421875 -0.125 16.375 C-0.10695312 15.18648437 -0.08890625 13.99796875 -0.0703125 12.7734375 C-0.04710937 11.85820313 -0.02390625 10.94296875 0 10 C-0.66 10 -1.32 10 -2 10 C-2 8.68 -2 7.36 -2 6 C-1.34 6 -0.68 6 0 6 C0 4.02 0 2.04 0 0 Z " fill="#607BCE" transform="translate(216,21)"/>
<path d="M0 0 C1.65 0 3.3 0 5 0 C5.33 6.93 5.66 13.86 6 21 C6.99 21 7.98 21 9 21 C9 22.65 9 24.3 9 26 C5.625 26.125 5.625 26.125 2 26 C0 24 0 24 -0.22705078 21.56982422 C-0.21657715 20.5748291 -0.20610352 19.57983398 -0.1953125 18.5546875 C-0.18886719 17.47832031 -0.18242187 16.40195312 -0.17578125 15.29296875 C-0.15902344 14.16503906 -0.14226562 13.03710938 -0.125 11.875 C-0.11597656 10.73933594 -0.10695312 9.60367187 -0.09765625 8.43359375 C-0.07403098 5.62218701 -0.04109013 2.81119702 0 0 Z " fill="#627BC6" transform="translate(247,20)"/>
<path d="M0 0 C1.65 0 3.3 0 5 0 C5.33 8.58 5.66 17.16 6 26 C4.02 25.67 2.04 25.34 0 25 C-0.33 25.33 -0.66 25.66 -1 26 C-8.25650558 26.59479554 -8.25650558 26.59479554 -11.5 24 C-11.995 23.34 -12.49 22.68 -13 22 C-12.360625 21.87625 -11.72125 21.7525 -11.0625 21.625 C-10.381875 21.41875 -9.70125 21.2125 -9 21 C-8.67 20.34 -8.34 19.68 -8 19 C-7.34 19.66 -6.68 20.32 -6 21 C-3.39719432 20.67958603 -3.39719432 20.67958603 -1 20 C-0.67 18.02 -0.34 16.04 0 14 C1.32 13.67 2.64 13.34 4 13 C4 9.04 4 5.08 4 1 C3.01 1 2.02 1 1 1 C1 3.31 1 5.62 1 8 C0.67 8 0.34 8 0 8 C0 5.36 0 2.72 0 0 Z " fill="#6983CB" transform="translate(168,20)"/>
<path d="M0 0 C1.65 0 3.3 0 5 0 C5 3.63 5 7.26 5 11 C5.99 11.33 6.98 11.66 8 12 C7.50886719 12.37769531 7.01773438 12.75539063 6.51171875 13.14453125 C4.42102117 15.71063292 4.69737798 17.42570933 4.8125 20.6875 C4.83957031 21.68136719 4.86664063 22.67523438 4.89453125 23.69921875 C4.92933594 24.45847656 4.96414062 25.21773437 5 26 C3.35 26 1.7 26 0 26 C0 17.42 0 8.84 0 0 Z " fill="#1A0E79" transform="translate(96,20)"/>
<path d="M0 0 C2 2 2 2 2.3125 5.4375 C2 9 2 9 0.875 10.9375 C-1.88980433 12.50422245 -3.88188517 12.38976435 -7 12 C-8.875 10.875 -8.875 10.875 -10 9 C-10.38976435 5.88188517 -10.50422245 3.88980433 -8.9375 1.125 C-5.93267901 -0.61973477 -3.39189869 -0.30835443 0 0 Z " fill="#5E79D6" transform="translate(58,28)"/>
<path d="M0 0 C1.875 1.125 1.875 1.125 3 3 C3.39365568 6.14924548 3.52854531 8.11909116 1.875 10.875 C-0.88090884 12.52854531 -2.85075452 12.39365568 -6 12 C-7.875 10.875 -7.875 10.875 -9 9 C-9.39365568 5.85075452 -9.52854531 3.88090884 -7.875 1.125 C-5.11909116 -0.52854531 -3.14924548 -0.39365568 0 0 Z " fill="#667AC9" transform="translate(40,3)"/>
<path d="M0 0 C2.625 0.9375 2.625 0.9375 5 2 C4.34 3.32 3.68 4.64 3 6 C6.96 6 10.92 6 15 6 C15.33 7.65 15.66 9.3 16 11 C13.39472895 11.10792837 10.79391689 11.18724878 8.1875 11.25 C7.44951172 11.28351562 6.71152344 11.31703125 5.95117188 11.3515625 C0.50151187 11.45019888 0.50151187 11.45019888 -2.0234375 9.18359375 C-3.39197557 6.12354262 -2.91519664 4.16798836 -2 1 C-1.34 0.67 -0.68 0.34 0 0 Z " fill="#5E7CD1" transform="translate(229,35)"/>
<path d="M0 0 C2.475 0.495 2.475 0.495 5 1 C5 9.25 5 17.5 5 26 C3.35 26 1.7 26 0 26 C0.99 25.67 1.98 25.34 3 25 C2.67039784 19.98464948 2.67039784 19.98464948 0 16 C-0.14507695 13.25514407 -0.18652423 10.61519457 -0.125 7.875 C-0.11146484 6.74384766 -0.11146484 6.74384766 -0.09765625 5.58984375 C-0.0740687 3.72642746 -0.03819719 1.86317407 0 0 Z " fill="#34289A" transform="translate(139,20)"/>
<path d="M0 0 C0.66 0 1.32 0 2 0 C2 7.59 2 15.18 2 23 C2.99 23 3.98 23 5 23 C5 22.01 5 21.02 5 20 C11.625 19.875 11.625 19.875 15 21 C14.67 22.32 14.34 23.64 14 25 C9.38 25 4.76 25 0 25 C0 16.75 0 8.5 0 0 Z " fill="#544AA1" transform="translate(71,21)"/>
<path d="M0 0 C1.65 0 3.3 0 5 0 C5 6.27 5 12.54 5 19 C3.35 19 1.7 19 0 19 C0 12.73 0 6.46 0 0 Z " fill="#577BD9" transform="translate(207,27)"/>
<path d="M0 0 C1.65 0 3.3 0 5 0 C5 6.27 5 12.54 5 19 C3.35 19 1.7 19 0 19 C0 12.73 0 6.46 0 0 Z " fill="#5A7ACF" transform="translate(177,27)"/>
<path d="M0 0 C2.10883522 1.70715232 2.92871224 2.58764921 3.3984375 5.3046875 C3.31853875 14.06691704 3.31853875 14.06691704 0 18 C-0.99 18.66 -1.98 19.32 -3 20 C-3.99 19.67 -4.98 19.34 -6 19 C-5.34 19 -4.68 19 -4 19 C-4 18.34 -4 17.68 -4 17 C-4.99 16.67 -5.98 16.34 -7 16 C-6.01 15.67 -5.02 15.34 -4 15 C-3.34 11.7 -2.68 8.4 -2 5 C-1.67 5.66 -1.34 6.32 -1 7 C-0.34 6.67 0.32 6.34 1 6 C0.67 4.02 0.34 2.04 0 0 Z " fill="#1A0E73" transform="translate(90,25)"/>
<path d="M0 0 C2.3125 1.4375 2.3125 1.4375 3.3125 3.3125 C3.3125 6.18220549 2.18336204 7.34213451 0.3125 9.4375 C-2.6575 8.9425 -2.6575 8.9425 -5.6875 8.4375 C-6.0175 6.4575 -6.3475 4.4775 -6.6875 2.4375 C-3.41417157 -0.71459405 -3.41417157 -0.71459405 0 0 Z " fill="#5D7CCC" transform="translate(38.6875,41.5625)"/>
<path d="M0 0 C2.5 0.25 2.5 0.25 4.5 2.25 C4.75 4.75 4.75 4.75 4.5 7.25 C2.5 9.25 2.5 9.25 -0.625 9.375 C-2.048125 9.313125 -2.048125 9.313125 -3.5 9.25 C-4.125 5.875 -4.125 5.875 -4.5 2.25 C-2.5 0.25 -2.5 0.25 0 0 Z " fill="#5C7BC7" transform="translate(19.5,15.75)"/>
<path d="M0 0 C1.32 0.33 2.64 0.66 4 1 C4 3.97 4 6.94 4 10 C2.02 10.33 0.04 10.66 -2 11 C-1.67 9.68 -1.34 8.36 -1 7 C-5.455 6.01 -5.455 6.01 -10 5 C-10 4.67 -10 4.34 -10 4 C-6.7 4 -3.4 4 0 4 C0 2.68 0 1.36 0 0 Z " fill="#6A87DB" transform="translate(240,31)"/>
<path d="M0 0 C0.94875 0.04125 1.8975 0.0825 2.875 0.125 C3.67453138 3.41196233 3.97158936 4.83523192 2.875 8.125 C0.565 8.125 -1.745 8.125 -4.125 8.125 C-4.75 5.25 -4.75 5.25 -5.125 2.125 C-3.125 0.125 -3.125 0.125 0 0 Z " fill="#1D1185" transform="translate(36.125,57.875)"/>
<path d="M0 0 C2.33333333 0 4.66666667 0 7 0 C7 7.26 7 14.52 7 22 C6.67 22 6.34 22 6 22 C5.67 15.4 5.34 8.8 5 2 C4.566875 4.9390625 4.566875 4.9390625 4.125 7.9375 C3.6328125 11.27734375 3.6328125 11.27734375 3 14 C2.01 14.495 2.01 14.495 1 15 C1.01160156 14.41992188 1.02320313 13.83984375 1.03515625 13.2421875 C1.08762174 8.7001754 0.91751063 4.47286431 0 0 Z " fill="#6A89D5" transform="translate(196,27)"/>
<path d="M0 0 C1 1 1 1 1.375 3.375 C1.25125 4.24125 1.1275 5.1075 1 6 C-1.5 7.8125 -1.5 7.8125 -4 9 C-4.28875 8.360625 -4.5775 7.72125 -4.875 7.0625 C-5.82823451 4.84793921 -5.82823451 4.84793921 -8 4 C-8 3.01 -8 2.02 -8 1 C-5.05549278 0.01849759 -3.06481021 -0.1613058 0 0 Z " fill="#567ADB" transform="translate(41,5)"/>
<path d="M0 0 C0.598125 0.350625 1.19625 0.70125 1.8125 1.0625 C1.855221 2.72861905 1.85313832 4.39632885 1.8125 6.0625 C0.8125 7.0625 0.8125 7.0625 -1.625 7.25 C-4.1875 7.0625 -4.1875 7.0625 -6.1875 5.0625 C-5.8125 2.4375 -5.8125 2.4375 -5.1875 0.0625 C-2.1875 -0.9375 -2.1875 -0.9375 0 0 Z " fill="#6F84C9" transform="translate(21.1875,35.9375)"/>
<path d="M0 0 C0.33 0 0.66 0 1 0 C1 8.25 1 16.5 1 25 C-0.32 24.67 -1.64 24.34 -3 24 C-2.01 24 -1.02 24 0 24 C0 19.38 0 14.76 0 10 C-0.66 10 -1.32 10 -2 10 C-2.33 7.69 -2.66 5.38 -3 3 C-2.34 3 -1.68 3 -1 3 C-0.67 2.01 -0.34 1.02 0 0 Z " fill="#1D0F81" transform="translate(116,21)"/>
<path d="M0 0 C0.33 1.65 0.66 3.3 1 5 C-4.28 5 -9.56 5 -15 5 C-15 4.67 -15 4.34 -15 4 C-12.69 4 -10.38 4 -8 4 C-8 3.34 -8 2.68 -8 2 C-9.32 1.67 -10.64 1.34 -12 1 C-7.9472484 0.01751476 -4.16138263 -0.08159574 0 0 Z " fill="#607EBF" transform="translate(244,41)"/>
<path d="M0 0 C0.33 0 0.66 0 1 0 C1 5.94 1 11.88 1 18 C0.01 18 -0.98 18 -2 18 C-2 13.38 -2 8.76 -2 4 C-1.34 4 -0.68 4 0 4 C0 2.68 0 1.36 0 0 Z " fill="#17087D" transform="translate(75,26)"/>
<path d="M0 0 C0.33 0 0.66 0 1 0 C1 4.95 1 9.9 1 15 C-0.32 14.67 -1.64 14.34 -3 14 C-2.69249629 11.85344499 -2.3788634 9.70776715 -2.0625 7.5625 C-1.88847656 6.36753906 -1.71445313 5.17257813 -1.53515625 3.94140625 C-1 1 -1 1 0 0 Z M-4 15 C-3.34 15 -2.68 15 -2 15 C-2 16.65 -2 18.3 -2 20 C-4 16.125 -4 16.125 -4 15 Z " fill="#587BD8" transform="translate(201,28)"/>
<path d="M0 0 C0.33 1.32 0.66 2.64 1 4 C0.34 4 -0.32 4 -1 4 C-1 4.99 -1 5.98 -1 7 C-3 8.6875 -3 8.6875 -5 10 C-5 8.68 -5 7.36 -5 6 C-6.65 6 -8.3 6 -10 6 C-6.74147635 3.8276509 -3.40755272 1.92880342 0 0 Z " fill="#1D107D" transform="translate(13,7)"/>
<path d="M0 0 C0.66 0 1.32 0 2 0 C2.25 2.25 2.25 2.25 2 5 C0 7.3125 0 7.3125 -2 9 C-2.99 8.67 -3.98 8.34 -5 8 C-2.25 2.25 -2.25 2.25 0 0 Z " fill="#241A89" transform="translate(52,7)"/>
<path d="M0 0 C0.33 0 0.66 0 1 0 C1 2.31 1 4.62 1 7 C1.66 7.33 2.32 7.66 3 8 C2.67 8.99 2.34 9.98 2 11 C-0.475 10.01 -0.475 10.01 -3 9 C-2.25 2.25 -2.25 2.25 0 0 Z " fill="#5A7ED8" transform="translate(171,34)"/>
<path d="M0 0 C0.99 0 1.98 0 3 0 C3 6.27 3 12.54 3 19 C1.35 19 -0.3 19 -2 19 C-0.68 18.67 0.64 18.34 2 18 C1.85805236 15.93722893 1.71127784 13.87478969 1.5625 11.8125 C1.48128906 10.66394531 1.40007812 9.51539063 1.31640625 8.33203125 C1.04596188 5.48401829 0.62478253 2.78789518 0 0 Z " fill="#627ABE" transform="translate(209,27)"/>
<path d="M0 0 C2.475 0.495 2.475 0.495 5 1 C5 2.65 5 4.3 5 6 C3.35 6 1.7 6 0 6 C0 4.02 0 2.04 0 0 Z " fill="#7891D5" transform="translate(147,40)"/>
<path d="M0 0 C6.625 -0.125 6.625 -0.125 10 1 C9.67 2.32 9.34 3.64 9 5 C5.65626525 4.44271087 2.96687001 3.64826111 0 2 C0 1.34 0 0.68 0 0 Z " fill="#413595" transform="translate(76,41)"/>
<path d="M0 0 C0.66 0.33 1.32 0.66 2 1 C2.125 3.375 2.125 3.375 2 6 C0 8 0 8 -3.125 8.125 C-4.548125 8.063125 -4.548125 8.063125 -6 8 C-4.68 7.67 -3.36 7.34 -2 7 C-2 5.35 -2 3.7 -2 2 C-1.34 2 -0.68 2 0 2 C0 1.34 0 0.68 0 0 Z " fill="#6885D7" transform="translate(22,17)"/>
<path d="M0 0 C1.32 0.66 2.64 1.32 4 2 C2.35 2.33 0.7 2.66 -1 3 C-1.33 4.65 -1.66 6.3 -2 8 C-2.66 7.67 -3.32 7.34 -4 7 C-3.6875 4.625 -3.6875 4.625 -3 2 C-2.01 1.34 -1.02 0.68 0 0 Z " fill="#7494DA" transform="translate(36,41)"/>
<path d="M0 0 C1.65 0 3.3 0 5 0 C4.67 1.98 4.34 3.96 4 6 C2.68 6 1.36 6 0 6 C0 4.02 0 2.04 0 0 Z " fill="#170D77" transform="translate(54,7)"/>
<path d="M0 0 C-1.47692308 6.64615385 -1.47692308 6.64615385 -4.125 8.4375 C-4.74375 8.623125 -5.3625 8.80875 -6 9 C-5.38983051 3.50847458 -5.38983051 3.50847458 -3.5625 1.125 C-2 0 -2 0 0 0 Z " fill="#6D81D6" transform="translate(160,27)"/>
<path d="M0 0 C1.65 0 3.3 0 5 0 C5 1.65 5 3.3 5 5 C3.35 5 1.7 5 0 5 C0 3.35 0 1.7 0 0 Z " fill="#6482D1" transform="translate(177,20)"/>
<path d="M0 0 C1.65 0 3.3 0 5 0 C5 1.65 5 3.3 5 5 C3.35 5 1.7 5 0 5 C0 3.35 0 1.7 0 0 Z " fill="#6583CB" transform="translate(207,20)"/>
<path d="M0 0 C0.33 0 0.66 0 1 0 C1.042721 1.66611905 1.04063832 3.33382885 1 5 C0 6 0 6 -2.5625 6.0625 C-3.7690625 6.0315625 -3.7690625 6.0315625 -5 6 C-5 4.68 -5 3.36 -5 2 C-2.525 2.495 -2.525 2.495 0 3 C0 2.01 0 1.02 0 0 Z " fill="#5E7CCD" transform="translate(22,37)"/>
<path d="M0 0 C2.375 0.3125 2.375 0.3125 5 1 C5.66 1.99 6.32 2.98 7 4 C4.69 4.33 2.38 4.66 0 5 C0 3.35 0 1.7 0 0 Z " fill="#190D76" transform="translate(83,21)"/>
<path d="M0 0 C0.33 0 0.66 0 1 0 C1 2.97 1 5.94 1 9 C2.65 9 4.3 9 6 9 C6 9.99 6 10.98 6 12 C3.83125748 11.49396008 2.00032373 11.00016187 0 10 C0 6.7 0 3.4 0 0 Z " fill="#728ACD" transform="translate(250,32)"/>
<path d="M0 0 C2.0625 0.4375 2.0625 0.4375 4 1 C3.01 2.485 3.01 2.485 2 4 C1.34 4 0.68 4 0 4 C0 6.31 0 8.62 0 11 C-0.33 11 -0.66 11 -1 11 C-1.02688151 9.35425434 -1.04634123 7.70838587 -1.0625 6.0625 C-1.07410156 5.14597656 -1.08570312 4.22945312 -1.09765625 3.28515625 C-1 1 -1 1 0 0 Z " fill="#4333A3" transform="translate(113,20)"/>
<path d="M0 0 C2.625 0.9375 2.625 0.9375 5 2 C3.35 3.32 1.7 4.64 0 6 C0 5.01 0 4.02 0 3 C-0.66 3 -1.32 3 -2 3 C-2 2.34 -2 1.68 -2 1 C-1.34 0.67 -0.68 0.34 0 0 Z " fill="#758BDA" transform="translate(229,35)"/>
<path d="M0 0 C0.33 0 0.66 0 1 0 C0.67 2.31 0.34 4.62 0 7 C-2.31 7.33 -4.62 7.66 -7 8 C-5.68 7.67 -4.36 7.34 -3 7 C-3 6.01 -3 5.02 -3 4 C-2.01 4 -1.02 4 0 4 C0 2.68 0 1.36 0 0 Z " fill="#5D79C3" transform="translate(59,32)"/>
<path d="M0 0 C0.33 0 0.66 0 1 0 C1.125 3.375 1.125 3.375 1 7 C0.34 7.66 -0.32 8.32 -1 9 C-1.33 6.69 -1.66 4.38 -2 2 C-1.34 2 -0.68 2 0 2 C0 1.34 0 0.68 0 0 Z " fill="#18068A" transform="translate(115,22)"/>
<path d="M0 0 C0.33 0.99 0.66 1.98 1 3 C1.99 3.33 2.98 3.66 4 4 C4 5.65 4 7.3 4 9 C2 7.875 2 7.875 0 6 C-0.25 2.8125 -0.25 2.8125 0 0 Z " fill="#768FDF" transform="translate(48,31)"/>
<path d="M0 0 C1.98 0 3.96 0 6 0 C5.01 1.485 5.01 1.485 4 3 C0.875 3.1875 0.875 3.1875 -2 3 C-1.34 2.67 -0.68 2.34 0 2 C0 1.34 0 0.68 0 0 Z " fill="#5E78D0" transform="translate(231,27)"/>
<path d="M0 0 C0.33 1.32 0.66 2.64 1 4 C0.34 4 -0.32 4 -1 4 C-1 4.99 -1 5.98 -1 7 C-1.99 7.33 -2.98 7.66 -4 8 C-3.40138258 5.64828869 -2.73075648 3.3140622 -2 1 C-1.34 0.67 -0.68 0.34 0 0 Z " fill="#170B75" transform="translate(13,7)"/>
</svg>
