<svg width="172" height="52" viewBox="0 0 172 52" fill="none" xmlns="http://www.w3.org/2000/svg">
<path d="M1 12.861C1 6.86259 5.92485 2 12 2C18.0752 2 23 6.86259 23 12.861V15.7998C21.1579 15.0719 19.1471 14.6711 17.0417 14.6711C8.18205 14.6711 1 21.7624 1 30.51V12.861Z" fill="#22C55E"/>
<path fill-rule="evenodd" clip-rule="evenodd" d="M17 46.5098C25.8366 46.5098 33 39.3463 33 30.5098C33 21.6732 25.8366 14.5098 17 14.5098C8.16344 14.5098 1 21.6732 1 30.5098C1 39.3463 8.16344 46.5098 17 46.5098ZM17 38.7383C21.5445 38.7383 25.2286 35.0543 25.2286 30.5098C25.2286 25.9653 21.5445 22.2812 17 22.2812C12.4555 22.2812 8.77143 25.9653 8.77143 30.5098C8.77143 35.0543 12.4555 38.7383 17 38.7383Z" fill="#1A202C"/>
<path d="M41.795 36V13.6H50.131C51.3363 13.6 52.4297 13.8507 53.411 14.352C54.3923 14.8427 55.1657 15.5467 55.731 16.464C56.307 17.3813 56.595 18.4587 56.595 19.696C56.595 20.1973 56.5257 20.7147 56.387 21.248C56.259 21.7813 56.035 22.272 55.715 22.72C55.4057 23.168 54.979 23.5093 54.435 23.744C55.139 23.9147 55.7043 24.2347 56.131 24.704C56.5577 25.1627 56.883 25.696 57.107 26.304C57.331 26.9013 57.4803 27.5147 57.555 28.144C57.6297 28.7733 57.667 29.344 57.667 29.856C57.667 31.008 57.3683 32.048 56.771 32.976C56.1737 33.904 55.3683 34.64 54.355 35.184C53.3523 35.728 52.243 36 51.027 36H41.795ZM46.211 32.24H50.563C51.1497 32.24 51.683 32.1013 52.163 31.824C52.643 31.536 53.027 31.1467 53.315 30.656C53.603 30.1547 53.747 29.5893 53.747 28.96C53.747 28.4267 53.603 27.92 53.315 27.44C53.027 26.96 52.643 26.5707 52.163 26.272C51.683 25.9627 51.1497 25.808 50.563 25.808H46.211V32.24ZM46.211 22.128H49.619C50.323 22.128 50.9257 21.8987 51.427 21.44C51.9283 20.9813 52.179 20.3893 52.179 19.664C52.179 18.9173 51.9283 18.352 51.427 17.968C50.9257 17.5733 50.323 17.376 49.619 17.376H46.211V22.128ZM70.7353 20H75.1513V36H70.7193L70.5113 34.336C70.0953 34.9547 69.5619 35.456 68.9113 35.84C68.2606 36.224 67.4979 36.416 66.6233 36.416C65.4286 36.416 64.3139 36.192 63.2793 35.744C62.2446 35.296 61.3326 34.6773 60.5433 33.888C59.7539 33.0987 59.1353 32.1867 58.6873 31.152C58.2499 30.1067 58.0313 28.9867 58.0313 27.792C58.0313 26.6507 58.2393 25.584 58.6553 24.592C59.0713 23.6 59.6579 22.7253 60.4153 21.968C61.1726 21.2107 62.0419 20.6187 63.0233 20.192C64.0153 19.7653 65.0819 19.552 66.2233 19.552C67.2046 19.552 68.0846 19.76 68.8633 20.176C69.6526 20.592 70.3406 21.12 70.9273 21.76L70.7353 20ZM66.5113 32.176C67.2366 32.176 67.8926 31.9893 68.4793 31.616C69.0659 31.2427 69.5299 30.7413 69.8713 30.112C70.2126 29.472 70.3833 28.768 70.3833 28C70.3833 27.2213 70.2126 26.5173 69.8713 25.888C69.5299 25.2587 69.0659 24.7573 68.4793 24.384C67.8926 24.0107 67.2366 23.824 66.5113 23.824C65.7753 23.824 65.1086 24.0107 64.5113 24.384C63.9139 24.7573 63.4393 25.264 63.0873 25.904C62.7353 26.5333 62.5593 27.232 62.5593 28C62.5593 28.768 62.7353 29.472 63.0873 30.112C63.4499 30.7413 63.9299 31.2427 64.5273 31.616C65.1246 31.9893 65.7859 32.176 66.5113 32.176ZM92.2703 25.824V36H87.8543V27.04C87.8543 26.4747 87.7156 25.968 87.4383 25.52C87.1716 25.0613 86.8089 24.6987 86.3503 24.432C85.9023 24.1653 85.4009 24.032 84.8463 24.032C84.2916 24.032 83.7849 24.1653 83.3263 24.432C82.8676 24.6987 82.5049 25.0613 82.2383 25.52C81.9716 25.968 81.8383 26.4747 81.8383 27.04V36H77.4223L77.4063 20H81.8223L81.8383 21.184C82.3716 20.672 82.9956 20.272 83.7103 19.984C84.4356 19.696 85.1983 19.552 85.9983 19.552C87.1609 19.552 88.2116 19.8347 89.1503 20.4C90.0996 20.9653 90.8569 21.7227 91.4223 22.672C91.9876 23.6107 92.2703 24.6613 92.2703 25.824ZM109.388 36H104.3L100.908 30.16L98.956 32.48V36H94.54V12H98.956V25.616L103.66 20H109.42L103.932 26.576L109.388 36Z" fill="#1A202C"/>
<path d="M121.511 36.416C119.996 36.416 118.572 36.1173 117.239 35.52C115.905 34.912 114.732 34.0747 113.719 33.008C112.716 31.9413 111.927 30.7093 111.351 29.312C110.785 27.904 110.503 26.4 110.503 24.8C110.503 23.1893 110.785 21.6853 111.351 20.288C111.927 18.88 112.716 17.648 113.719 16.592C114.732 15.5253 115.905 14.6933 117.239 14.096C118.572 13.488 119.996 13.184 121.511 13.184C123.324 13.184 124.993 13.6053 126.519 14.448C128.044 15.28 129.308 16.3947 130.311 17.792L126.375 19.92C125.777 19.216 125.057 18.656 124.215 18.24C123.372 17.8133 122.471 17.6 121.511 17.6C120.604 17.6 119.751 17.7867 118.951 18.16C118.151 18.5333 117.447 19.0507 116.839 19.712C116.241 20.3733 115.772 21.136 115.431 22C115.089 22.864 114.919 23.7973 114.919 24.8C114.919 25.792 115.089 26.7253 115.431 27.6C115.772 28.464 116.241 29.2267 116.839 29.888C117.447 30.5387 118.151 31.056 118.951 31.44C119.751 31.8133 120.604 32 121.511 32C122.481 32 123.383 31.7867 124.215 31.36C125.057 30.9333 125.777 30.368 126.375 29.664L130.311 31.808C129.308 33.1947 128.044 34.3093 126.519 35.152C124.993 35.9947 123.324 36.416 121.511 36.416ZM138.504 36.416C137.032 36.416 135.688 36.0373 134.472 35.28C133.266 34.5227 132.301 33.5093 131.576 32.24C130.861 30.96 130.504 29.5467 130.504 28C130.504 26.8267 130.712 25.7333 131.128 24.72C131.544 23.696 132.114 22.8 132.84 22.032C133.576 21.2533 134.429 20.6453 135.4 20.208C136.37 19.7707 137.405 19.552 138.504 19.552C139.976 19.552 141.314 19.9307 142.52 20.688C143.736 21.4453 144.701 22.464 145.416 23.744C146.141 25.024 146.504 26.4427 146.504 28C146.504 29.1627 146.296 30.2507 145.88 31.264C145.464 32.2773 144.888 33.1733 144.152 33.952C143.426 34.72 142.578 35.3227 141.608 35.76C140.648 36.1973 139.613 36.416 138.504 36.416ZM138.504 32C139.186 32 139.8 31.8187 140.344 31.456C140.888 31.0827 141.314 30.592 141.624 29.984C141.933 29.376 142.088 28.7147 142.088 28C142.088 27.264 141.922 26.592 141.592 25.984C141.272 25.3653 140.84 24.8747 140.296 24.512C139.752 24.1493 139.154 23.968 138.504 23.968C137.832 23.968 137.224 24.1547 136.68 24.528C136.136 24.9013 135.704 25.392 135.384 26C135.074 26.608 134.92 27.2747 134.92 28C134.92 28.7573 135.08 29.44 135.4 30.048C135.73 30.6453 136.168 31.12 136.712 31.472C137.256 31.824 137.853 32 138.504 32Z" fill="#22C55E"/>
</svg>
